# xmcd
#
# Track frame offsets: 
#        150
#        15362
#        30350
#        45746
#        65000
#        79555
#        91299
#        106934
#        123812
#        136410
#        153006
#        167141
#        184314
#        198146
#        211598
#        225249
#        239383
#        259933
#        274067
#        289215
#        307608
#        324132
#        338266
#
# Disc length: 4746 seconds
#
# Revision: 0
# Processed by: cddbd v1.5.1PL0 Copyright (c) Steve Scherf et al.
# Submitted via: ExactAudioCopy v0.95a5
#
DISCID=18128817
DTITLE=Norah Jones - Bestseller
DYEAR=2004
DGENRE=Pop
TTITLE0=Sunrise
TTITLE1=Come Away With Me
TTITLE2=Be Here To Love Me
TTITLE3=I've Got To See You Again
TTITLE4=Carnival Town
TTITLE5=Turn Me On
TTITLE6=What Am I To You
TTITLE7=Toes
TTITLE8=The Long Day Is Over
TTITLE9=Above Ground
TTITLE10=The Long Way Home
TTITLE11=The Prettiest Thing
TTITLE12=Don't Miss You At All
TTITLE13=Feelin' The Same Way
TTITLE14=Creepin' In
TTITLE15=One Flight Down
TTITLE16=Humble Me
TTITLE17=Don't Know Why
TTITLE18=Those Sweet Words
TTITLE19=In The Morning
TTITLE20=Cold Cold Heart
TTITLE21=Lonestar
TTITLE22=Shoot The Moon
EXTD=
EXTT0=
EXTT1=
EXTT2=
EXTT3=
EXTT4=
EXTT5=
EXTT6=
EXTT7=
EXTT8=
EXTT9=
EXTT10=
EXTT11=
EXTT12=
EXTT13=
EXTT14=
EXTT15=
EXTT16=
EXTT17=
EXTT18=
EXTT19=
EXTT20=
EXTT21=
EXTT22=
PLAYORDER=
